<svg width="27" height="22" viewBox="0 0 27 22" fill="none" xmlns="http://www.w3.org/2000/svg">
<path fill-rule="evenodd" clip-rule="evenodd" d="M1.54125 14.432C0.692097 14.432 0.00390625 13.7639 0.00390625 12.9399C0.00390625 12.9399 0.00390625 5.29284 0.00390625 1.75608C0.00390625 0.786358 0.813834 0.000244141 1.81312 0.000244141C5.93938 0.000244141 15.691 0.000244141 15.691 0.000244141C21.7462 0.000244141 26.6552 4.76394 26.6552 10.6403C26.6552 16.5166 21.7462 21.2803 15.691 21.2803H8.91192C7.92427 21.2803 7.12374 20.5033 7.12374 19.545V16.2577C7.12374 15.7734 6.92539 15.3091 6.57262 14.9667C6.21984 14.6243 5.74124 14.432 5.24221 14.432H1.54125ZM17.6179 9.25922C17.6179 9.00247 17.5125 8.75648 17.325 8.57542C17.1375 8.39441 16.8834 8.29342 16.6188 8.2948C14.2699 8.30709 8.59428 8.33678 8.59428 8.33678C8.59428 8.33678 8.59428 10.6327 8.59428 11.9829C8.59428 12.5141 9.03714 12.9451 9.58438 12.9467C11.3178 12.952 14.8827 12.963 16.6211 12.9684C16.8852 12.9692 17.1387 12.8679 17.3258 12.6869C17.5127 12.506 17.6179 12.2602 17.6179 12.0039V9.25922Z" fill="#F67D24"/>
</svg>
