<?xml version="1.0" encoding="UTF-8"?>
<!DOCTYPE svg PUBLIC "-//W3C//DTD SVG 1.1//EN" "http://www.w3.org/Graphics/SVG/1.1/DTD/svg11.dtd">
<svg xmlns="http://www.w3.org/2000/svg" version="1.1" width="178px" height="190px" style="shape-rendering:geometricPrecision; text-rendering:geometricPrecision; image-rendering:optimizeQuality; fill-rule:evenodd; clip-rule:evenodd" xmlns:xlink="http://www.w3.org/1999/xlink">
<g><path style="opacity:0.331" fill="#c9badd" d="M 35.5,42.5 C 35.5,42.1667 35.5,41.8333 35.5,41.5C 68.5017,41.3334 101.502,41.5 134.5,42C 135.416,42.2784 136.082,42.7784 136.5,43.5C 102.864,42.5207 69.1977,42.1874 35.5,42.5 Z"/></g>
<g><path style="opacity:0.927" fill="#74599c" d="M 35.5,42.5 C 69.1977,42.1874 102.864,42.5207 136.5,43.5C 139.167,44.1667 140.833,45.8333 141.5,48.5C 138.579,46.9106 135.579,45.4106 132.5,44C 99.8333,43.3333 67.1667,43.3333 34.5,44C 32.8863,46.1267 30.8863,47.6267 28.5,48.5C 30.2393,45.7573 32.5726,43.7573 35.5,42.5 Z"/></g>
<g><path style="opacity:0.22" fill="#f3ecf6" d="M 35.5,41.5 C 35.5,41.8333 35.5,42.1667 35.5,42.5C 32.5726,43.7573 30.2393,45.7573 28.5,48.5C 28.5,48.8333 28.5,49.1667 28.5,49.5C 28.1667,49.5 27.8333,49.5 27.5,49.5C 26.9717,48.1526 26.805,46.8193 27,45.5C 29.3974,43.2177 32.2307,41.8844 35.5,41.5 Z"/></g>
<g><path style="opacity:1" fill="#56338a" d="M 141.5,48.5 C 141.807,83.5243 141.473,118.524 140.5,153.5C 139.5,154.167 138.5,154.833 137.5,155.5C 104.523,156.638 71.5229,156.805 38.5,156C 36.1341,155.56 33.8008,155.06 31.5,154.5C 31.0874,152.11 30.4207,149.777 29.5,147.5C 28.5001,114.84 28.1668,82.1735 28.5,49.5C 28.5,49.1667 28.5,48.8333 28.5,48.5C 30.8863,47.6267 32.8863,46.1267 34.5,44C 67.1667,43.3333 99.8333,43.3333 132.5,44C 135.579,45.4106 138.579,46.9106 141.5,48.5 Z M 60.5,62.5 C 61.5137,63.6737 62.847,64.3404 64.5,64.5C 68.0022,68.0727 69.3356,72.4061 68.5,77.5C 67.6618,77.8417 67.3284,78.5084 67.5,79.5C 66.1667,80.1667 65.1667,81.1667 64.5,82.5C 62.1667,83.1667 59.8333,83.8333 57.5,84.5C 56.0697,83.4625 54.403,82.7959 52.5,82.5C 51.8333,81.1667 50.8333,80.1667 49.5,79.5C 47.6338,75.9299 47.3005,72.2632 48.5,68.5C 49.8333,66.5 51.5,64.8333 53.5,63.5C 55.8056,63.0074 58.139,62.6741 60.5,62.5 Z M 110.5,62.5 C 111.93,63.5375 113.597,64.2041 115.5,64.5C 115.833,65.5 116.5,66.1667 117.5,66.5C 120.75,74.6674 118.417,80.6674 110.5,84.5C 109.5,84.5 108.5,84.5 107.5,84.5C 105.071,83.4488 102.738,82.1155 100.5,80.5C 100.34,78.847 99.6737,77.5137 98.5,76.5C 98.3677,73.4299 98.701,70.4299 99.5,67.5C 102.249,64.1261 105.915,62.4594 110.5,62.5 Z M 52.5,104.5 C 52.8333,104.5 53.1667,104.5 53.5,104.5C 54.1667,105.833 55.1667,106.833 56.5,107.5C 56.427,109.027 57.0937,110.027 58.5,110.5C 59.0798,112.749 60.4131,114.415 62.5,115.5C 62.5,115.833 62.5,116.167 62.5,116.5C 63.2623,118.262 64.5956,119.262 66.5,119.5C 66.9731,120.906 67.9731,121.573 69.5,121.5C 72.0836,123.472 75.0836,124.472 78.5,124.5C 80.5914,124.318 82.5914,124.652 84.5,125.5C 88.451,125.066 92.1176,124.066 95.5,122.5C 97.0269,122.573 98.0269,121.906 98.5,120.5C 100.404,120.262 101.738,119.262 102.5,117.5C 103.5,117.167 104.167,116.5 104.5,115.5C 105.906,115.027 106.573,114.027 106.5,112.5C 108.547,110.45 110.214,108.117 111.5,105.5C 114.244,104.509 116.911,104.843 119.5,106.5C 119.678,107.695 120.011,108.862 120.5,110C 119.68,111.8 119.014,113.634 118.5,115.5C 116.75,116.659 115.75,118.326 115.5,120.5C 114.094,120.973 113.427,121.973 113.5,123.5C 112.833,123.5 112.5,123.833 112.5,124.5C 110.251,125.08 108.585,126.413 107.5,128.5C 105.973,128.427 104.973,129.094 104.5,130.5C 102.847,130.66 101.514,131.326 100.5,132.5C 97.6027,133.129 94.936,134.129 92.5,135.5C 85.1016,136.826 77.7682,136.493 70.5,134.5C 68.351,133.264 66.0177,132.264 63.5,131.5C 59.0212,128.081 54.6878,124.414 50.5,120.5C 50.6716,119.508 50.3382,118.842 49.5,118.5C 49.573,116.973 48.9063,115.973 47.5,115.5C 47.6716,114.508 47.3382,113.842 46.5,113.5C 45.1667,110.833 45.1667,108.167 46.5,105.5C 48.3792,104.659 50.3792,104.325 52.5,104.5 Z"/></g>
<g><path style="opacity:0.42" fill="#b5a3cd" d="M 27.5,49.5 C 27.3333,83.1683 27.5,116.835 28,150.5C 28.66,152.324 29.8267,153.657 31.5,154.5C 32.1667,155.5 32.8333,156.5 33.5,157.5C 30.5722,156.409 28.4055,154.409 27,151.5C 26.1691,117.331 26.3358,83.3309 27.5,49.5 Z"/></g>
<g><path style="opacity:0.967" fill="#52377c" d="M 27.5,49.5 C 27.8333,49.5 28.1667,49.5 28.5,49.5C 28.1668,82.1735 28.5001,114.84 29.5,147.5C 30.4207,149.777 31.0874,152.11 31.5,154.5C 29.8267,153.657 28.66,152.324 28,150.5C 27.5,116.835 27.3333,83.1683 27.5,49.5 Z"/></g>
<g><path style="opacity:1" fill="#60438b" d="M 68.5,66.5 C 67.3951,65.3995 66.0618,64.7329 64.5,64.5C 62.847,64.3404 61.5137,63.6737 60.5,62.5C 57.9882,61.1326 55.6548,61.466 53.5,63.5C 51.5,64.8333 49.8333,66.5 48.5,68.5C 47.1024,69.7767 46.4357,71.4434 46.5,73.5C 46.4672,76.1016 47.4672,78.1016 49.5,79.5C 49.5,81.5 50.5,82.5 52.5,82.5C 52.8333,83.1667 53.1667,83.8333 53.5,84.5C 51.5,84.1667 49.5,83.8333 47.5,83.5C 46.991,80.1415 45.991,76.9748 44.5,74C 44.8423,69.2217 46.009,64.7217 48,60.5C 48.3333,61.1667 48.6667,61.8333 49,62.5C 54.7363,60.8131 60.9029,59.1464 67.5,57.5C 68.3857,58.325 68.719,59.325 68.5,60.5C 67.1667,60.5 65.8333,60.5 64.5,60.5C 64.5,61.5 64.5,62.5 64.5,63.5C 65.8333,63.5 67.1667,63.5 68.5,63.5C 68.5,64.5 68.5,65.5 68.5,66.5 Z"/></g>
<g><path style="opacity:0.596" fill="#9f8dbc" d="M 60.5,62.5 C 58.139,62.6741 55.8056,63.0074 53.5,63.5C 55.6548,61.466 57.9882,61.1326 60.5,62.5 Z"/></g>
<g><path style="opacity:0.945" fill="#79609b" d="M 119.5,67.5 C 118.833,67.1667 118.167,66.8333 117.5,66.5C 116.5,66.1667 115.833,65.5 115.5,64.5C 114.365,62.7868 112.698,62.1201 110.5,62.5C 105.915,62.4594 102.249,64.1261 99.5,67.5C 99.1667,67.5 98.8333,67.5 98.5,67.5C 99.5795,62.0851 102.913,60.0851 108.5,61.5C 114.152,60.1548 117.819,62.1548 119.5,67.5 Z"/></g>
<g><path style="opacity:0.82" fill="#af96c9" d="M 110.5,62.5 C 112.698,62.1201 114.365,62.7868 115.5,64.5C 113.597,64.2041 111.93,63.5375 110.5,62.5 Z"/></g>
<g><path style="opacity:0.408" fill="#cebddd" d="M 64.5,64.5 C 66.0618,64.7329 67.3951,65.3995 68.5,66.5C 68.8333,67.8333 69.1667,69.1667 69.5,70.5C 69.8016,73.0593 69.4682,75.3926 68.5,77.5C 69.3356,72.4061 68.0022,68.0727 64.5,64.5 Z"/></g>
<g><path style="opacity:0.341" fill="#ccbadf" d="M 48.5,68.5 C 47.3005,72.2632 47.6338,75.9299 49.5,79.5C 47.4672,78.1016 46.4672,76.1016 46.5,73.5C 46.4357,71.4434 47.1024,69.7767 48.5,68.5 Z"/></g>
<g><path style="opacity:0.176" fill="#d3c4e2" d="M 98.5,67.5 C 98.8333,67.5 99.1667,67.5 99.5,67.5C 98.701,70.4299 98.3677,73.4299 98.5,76.5C 97.2248,73.6038 97.2248,70.6038 98.5,67.5 Z"/></g>
<g><path style="opacity:0.995" fill="#735f92" d="M 141.5,48.5 C 142.222,48.9175 142.722,49.5842 143,50.5C 143.497,53.146 143.664,55.8127 143.5,58.5C 143.5,59.1667 143.5,59.8333 143.5,60.5C 143.5,63.8333 143.5,67.1667 143.5,70.5C 143.5,71.5 143.5,72.5 143.5,73.5C 143.667,99.1688 143.5,124.835 143,150.5C 142.623,151.942 141.79,152.942 140.5,153.5C 141.473,118.524 141.807,83.5243 141.5,48.5 Z"/></g>
<g><path style="opacity:0.392" fill="#b4a3cc" d="M 117.5,66.5 C 118.167,66.8333 118.833,67.1667 119.5,67.5C 122.482,76.5428 119.482,82.2094 110.5,84.5C 118.417,80.6674 120.75,74.6674 117.5,66.5 Z"/></g>
<g><path style="opacity:0.178" fill="#fdfce5" d="M 153.5,134.5 C 156.642,134.201 158.809,132.534 160,129.5C 160.667,109.833 160.667,90.1667 160,70.5C 158.974,67.3072 156.808,65.9738 153.5,66.5C 154.204,64.6558 155.537,64.1558 157.5,65C 159.049,66.214 160.215,67.714 161,69.5C 161.179,89.2101 161.679,108.877 162.5,128.5C 161.453,131.43 159.787,133.93 157.5,136C 155.648,136.773 154.314,136.273 153.5,134.5 Z"/></g>
<g><path style="opacity:1" fill="#a5ce7c" d="M 150.5,138.5 C 150.443,139.609 150.11,140.609 149.5,141.5C 148.5,141.5 147.5,141.5 146.5,141.5C 146.333,116.498 146.5,91.4978 147,66.5C 147.202,64.7444 147.702,63.0777 148.5,61.5C 149.192,62.0253 149.692,62.6919 150,63.5C 150.5,88.4978 150.667,113.498 150.5,138.5 Z"/></g>
<g><path style="opacity:1" fill="#f8ebaa" d="M 153.5,66.5 C 156.808,65.9738 158.974,67.3072 160,70.5C 160.667,90.1667 160.667,109.833 160,129.5C 158.809,132.534 156.642,134.201 153.5,134.5C 153.5,111.833 153.5,89.1667 153.5,66.5 Z"/></g>
<g><path style="opacity:1" fill="#674e8e" d="M 69.5,70.5 C 70.8032,73.3553 70.8032,76.3553 69.5,79.5C 68.8589,80.9935 67.8589,81.9935 66.5,82.5C 67.1098,81.609 67.4431,80.609 67.5,79.5C 67.3284,78.5084 67.6618,77.8417 68.5,77.5C 69.4682,75.3926 69.8016,73.0593 69.5,70.5 Z"/></g>
<g><path style="opacity:0.09" fill="#e5daf0" d="M 98.5,76.5 C 99.6737,77.5137 100.34,78.847 100.5,80.5C 98.8958,79.713 98.2291,78.3797 98.5,76.5 Z"/></g>
<g><path style="opacity:0.29" fill="#dceacc" d="M 150.5,59.5 C 149.549,57.882 148.216,56.5487 146.5,55.5C 145.167,85.1667 145.167,114.833 146.5,144.5C 147.855,143.812 148.855,142.812 149.5,141.5C 150.11,140.609 150.443,139.609 150.5,138.5C 150.833,138.5 151.167,138.5 151.5,138.5C 151.253,143.076 148.919,145.743 144.5,146.5C 144.831,121.994 144.498,97.6609 143.5,73.5C 143.5,72.5 143.5,71.5 143.5,70.5C 144.833,67.1667 144.833,63.8333 143.5,60.5C 143.5,59.8333 143.5,59.1667 143.5,58.5C 144.248,53.0396 146.415,52.373 150,56.5C 150.483,57.448 150.649,58.448 150.5,59.5 Z"/></g>
<g><path style="opacity:0.884" fill="#b0ce90" d="M 150.5,59.5 C 152.711,61.4945 153.044,63.8279 151.5,66.5C 151.5,68.1667 151.5,69.8333 151.5,71.5C 151.5,72.1667 151.5,72.8333 151.5,73.5C 151.5,73.8333 151.5,74.1667 151.5,74.5C 151.5,92.8333 151.5,111.167 151.5,129.5C 151.5,131.167 151.5,132.833 151.5,134.5C 151.5,135.833 151.5,137.167 151.5,138.5C 151.167,138.5 150.833,138.5 150.5,138.5C 150.667,113.498 150.5,88.4978 150,63.5C 149.692,62.6919 149.192,62.0253 148.5,61.5C 147.702,63.0777 147.202,64.7444 147,66.5C 146.5,91.4978 146.333,116.498 146.5,141.5C 147.5,141.5 148.5,141.5 149.5,141.5C 148.855,142.812 147.855,143.812 146.5,144.5C 145.167,114.833 145.167,85.1667 146.5,55.5C 148.216,56.5487 149.549,57.882 150.5,59.5 Z"/></g>
<g><path style="opacity:1" fill="#f9e795" d="M 154.5,68.5 C 155.822,68.33 156.989,68.6634 158,69.5C 158.667,89.8333 158.667,110.167 158,130.5C 157,131.833 156,131.833 155,130.5C 154.5,109.836 154.333,89.1694 154.5,68.5 Z"/></g>
<g><path style="opacity:0.42" fill="#d1c1df" d="M 49.5,79.5 C 50.8333,80.1667 51.8333,81.1667 52.5,82.5C 50.5,82.5 49.5,81.5 49.5,79.5 Z"/></g>
<g><path style="opacity:0.04" fill="#fdfee6" d="M 151.5,66.5 C 152.167,66.5 152.833,66.5 153.5,66.5C 153.5,89.1667 153.5,111.833 153.5,134.5C 152.833,134.5 152.167,134.5 151.5,134.5C 151.5,132.833 151.5,131.167 151.5,129.5C 152.833,111.167 152.833,92.8333 151.5,74.5C 151.5,74.1667 151.5,73.8333 151.5,73.5C 152.833,72.8333 152.833,72.1667 151.5,71.5C 151.5,69.8333 151.5,68.1667 151.5,66.5 Z"/></g>
<g><path style="opacity:0.631" fill="#ac99c3" d="M 67.5,79.5 C 67.4431,80.609 67.1098,81.609 66.5,82.5C 65.8333,82.5 65.1667,82.5 64.5,82.5C 65.1667,81.1667 66.1667,80.1667 67.5,79.5 Z"/></g>
<g><path style="opacity:0.337" fill="#d0c0de" d="M 52.5,82.5 C 54.403,82.7959 56.0697,83.4625 57.5,84.5C 57.1667,84.5 56.8333,84.5 56.5,84.5C 55.5,84.5 54.5,84.5 53.5,84.5C 53.1667,83.8333 52.8333,83.1667 52.5,82.5 Z"/></g>
<g><path style="opacity:1" fill="#9f8abb" d="M 100.5,80.5 C 102.738,82.1155 105.071,83.4488 107.5,84.5C 105.396,84.7989 103.396,84.4656 101.5,83.5C 100.873,82.5832 100.539,81.5832 100.5,80.5 Z"/></g>
<g><path style="opacity:0.906" fill="#7e669d" d="M 64.5,82.5 C 64.4226,83.7498 63.756,84.5831 62.5,85C 60.2884,85.7891 58.2884,85.6225 56.5,84.5C 56.8333,84.5 57.1667,84.5 57.5,84.5C 59.8333,83.8333 62.1667,83.1667 64.5,82.5 Z"/></g>
<g><path style="opacity:0.62" fill="#b5a2cb" d="M 53.5,104.5 C 55.5,104.5 56.5,105.5 56.5,107.5C 55.1667,106.833 54.1667,105.833 53.5,104.5 Z"/></g>
<g><path style="opacity:0.137" fill="#cab9db" d="M 119.5,106.5 C 116.911,104.843 114.244,104.509 111.5,105.5C 114.377,102.873 117.044,103.206 119.5,106.5 Z"/></g>
<g><path style="opacity:1" fill="#664c8c" d="M 52.5,104.5 C 52.5,104.167 52.5,103.833 52.5,103.5C 54.8273,103.247 56.8273,103.914 58.5,105.5C 59.6509,108.963 60.9843,112.296 62.5,115.5C 60.4131,114.415 59.0798,112.749 58.5,110.5C 58.573,108.973 57.9063,107.973 56.5,107.5C 56.5,105.5 55.5,104.5 53.5,104.5C 53.1667,104.5 52.8333,104.5 52.5,104.5 Z"/></g>
<g><path style="opacity:0.522" fill="#ae9bc3" d="M 119.5,106.5 C 121.807,108.572 122.141,111.072 120.5,114C 120.164,115.03 119.497,115.53 118.5,115.5C 119.014,113.634 119.68,111.8 120.5,110C 120.011,108.862 119.678,107.695 119.5,106.5 Z"/></g>
<g><path style="opacity:1" fill="#775d98" d="M 52.5,103.5 C 52.5,103.833 52.5,104.167 52.5,104.5C 50.3792,104.325 48.3792,104.659 46.5,105.5C 44.7202,106.99 44.0535,108.99 44.5,111.5C 42.0118,109.427 42.0118,107.093 44.5,104.5C 47.0662,102.401 49.7328,102.068 52.5,103.5 Z"/></g>
<g><path style="opacity:0.243" fill="#d4c3e0" d="M 46.5,105.5 C 45.1667,108.167 45.1667,110.833 46.5,113.5C 45.5,113.167 44.8333,112.5 44.5,111.5C 44.0535,108.99 44.7202,106.99 46.5,105.5 Z"/></g>
<g><path style="opacity:0.227" fill="#c7b8d8" d="M 56.5,107.5 C 57.9063,107.973 58.573,108.973 58.5,110.5C 57.0937,110.027 56.427,109.027 56.5,107.5 Z"/></g>
<g><path style="opacity:0.933" fill="#a48fbb" d="M 111.5,105.5 C 110.214,108.117 108.547,110.45 106.5,112.5C 106.735,109.197 108.402,106.863 111.5,105.5 Z"/></g>
<g><path style="opacity:0.035" fill="#d3c4e2" d="M 106.5,112.5 C 106.573,114.027 105.906,115.027 104.5,115.5C 104.427,113.973 105.094,112.973 106.5,112.5 Z"/></g>
<g><path style="opacity:0.482" fill="#cfc0df" d="M 62.5,116.5 C 64.4044,116.738 65.7377,117.738 66.5,119.5C 64.5956,119.262 63.2623,118.262 62.5,116.5 Z"/></g>
<g><path style="opacity:0.216" fill="#ddceea" d="M 47.5,115.5 C 48.9063,115.973 49.573,116.973 49.5,118.5C 48.0937,118.027 47.427,117.027 47.5,115.5 Z"/></g>
<g><path style="opacity:0.953" fill="#9681b2" d="M 102.5,117.5 C 101.738,119.262 100.404,120.262 98.5,120.5C 99.5981,119.603 99.5981,118.77 98.5,118C 99.7932,117.51 101.127,117.343 102.5,117.5 Z"/></g>
<g><path style="opacity:0.145" fill="#d9cae6" d="M 118.5,115.5 C 118.25,117.674 117.25,119.341 115.5,120.5C 115.75,118.326 116.75,116.659 118.5,115.5 Z"/></g>
<g><path style="opacity:0.243" fill="#d0c0e3" d="M 66.5,119.5 C 68.0269,119.427 69.0269,120.094 69.5,121.5C 67.9731,121.573 66.9731,120.906 66.5,119.5 Z"/></g>
<g><path style="opacity:0.859" fill="#aa97c1" d="M 69.5,121.5 C 72.855,121.69 75.855,122.69 78.5,124.5C 75.0836,124.472 72.0836,123.472 69.5,121.5 Z"/></g>
<g><path style="opacity:0.082" fill="#d4c6e4" d="M 98.5,120.5 C 98.0269,121.906 97.0269,122.573 95.5,122.5C 95.9731,121.094 96.9731,120.427 98.5,120.5 Z"/></g>
<g><path style="opacity:0.686" fill="#ae9bc5" d="M 115.5,120.5 C 115.573,122.027 114.906,123.027 113.5,123.5C 113.427,121.973 114.094,120.973 115.5,120.5 Z"/></g>
<g><path style="opacity:0.675" fill="#b2a1c8" d="M 112.5,124.5 C 111.415,126.587 109.749,127.92 107.5,128.5C 108.585,126.413 110.251,125.08 112.5,124.5 Z"/></g>
<g><path style="opacity:0.247" fill="#c1b0d4" d="M 50.5,120.5 C 54.6878,124.414 59.0212,128.081 63.5,131.5C 57.7468,129.464 53.4135,125.798 50.5,120.5 Z"/></g>
<g><path style="opacity:0.486" fill="#c3b2d9" d="M 107.5,128.5 C 107.027,129.906 106.027,130.573 104.5,130.5C 104.973,129.094 105.973,128.427 107.5,128.5 Z"/></g>
<g><path style="opacity:0.427" fill="#b5a4cb" d="M 63.5,131.5 C 66.0177,132.264 68.351,133.264 70.5,134.5C 67.509,134.834 65.1757,133.834 63.5,131.5 Z"/></g>
<g><path style="opacity:0.698" fill="#aa9ac2" d="M 100.5,132.5 C 98.3826,134.655 95.716,135.655 92.5,135.5C 94.936,134.129 97.6027,133.129 100.5,132.5 Z"/></g>
<g><path style="opacity:0.978" fill="#533781" d="M 31.5,154.5 C 33.8008,155.06 36.1341,155.56 38.5,156C 71.5229,156.805 104.523,156.638 137.5,155.5C 137.082,156.222 136.416,156.722 135.5,157C 101.502,157.5 67.5016,157.667 33.5,157.5C 32.8333,156.5 32.1667,155.5 31.5,154.5 Z"/></g>
<g><path style="opacity:0.239" fill="#c8b8dc" d="M 140.5,153.5 C 139.15,157.025 136.484,158.858 132.5,159C 100.833,159.667 69.1667,159.667 37.5,159C 35.9419,158.79 34.6085,158.29 33.5,157.5C 67.5016,157.667 101.502,157.5 135.5,157C 136.416,156.722 137.082,156.222 137.5,155.5C 138.5,154.833 139.5,154.167 140.5,153.5 Z"/></g>
</svg>
